<mxfile host="app.diagrams.net" modified="2024-11-03T14:54:20.996Z" agent="Mozilla/5.0 (Windows NT 10.0; Win64; x64; rv:131.0) Gecko/20100101 Firefox/131.0" etag="Wzl4Lvk1qTU0tC0hAVn1" version="24.6.4" type="device">
  <diagram name="Seite-1" id="4YSJfOpFCfUjbprgWO81">
    <mxGraphModel dx="1050" dy="1707" grid="1" gridSize="10" guides="1" tooltips="1" connect="1" arrows="1" fold="1" page="1" pageScale="1" pageWidth="827" pageHeight="1169" math="0" shadow="0">
      <root>
        <mxCell id="0" />
        <mxCell id="1" parent="0" />
        <mxCell id="sbt_hyZxBfFW6GqUvSIC-1" value="Pong Game Lobby" style="ellipse;whiteSpace=wrap;html=1;verticalAlign=top;" vertex="1" parent="1">
          <mxGeometry x="110" y="-160" width="870" height="410" as="geometry" />
        </mxCell>
        <mxCell id="sbt_hyZxBfFW6GqUvSIC-17" value="Kubernetes Cluster" style="rounded=1;whiteSpace=wrap;html=1;verticalAlign=top;" vertex="1" parent="1">
          <mxGeometry x="240" y="-90" width="390" height="280" as="geometry" />
        </mxCell>
        <mxCell id="sbt_hyZxBfFW6GqUvSIC-16" style="rounded=0;orthogonalLoop=1;jettySize=auto;html=1;" edge="1" parent="1" source="sbt_hyZxBfFW6GqUvSIC-2" target="sbt_hyZxBfFW6GqUvSIC-7">
          <mxGeometry relative="1" as="geometry" />
        </mxCell>
        <mxCell id="sbt_hyZxBfFW6GqUvSIC-24" style="rounded=0;orthogonalLoop=1;jettySize=auto;html=1;" edge="1" parent="1" source="sbt_hyZxBfFW6GqUvSIC-2" target="sbt_hyZxBfFW6GqUvSIC-18">
          <mxGeometry relative="1" as="geometry" />
        </mxCell>
        <mxCell id="sbt_hyZxBfFW6GqUvSIC-8" value="" style="group" vertex="1" connectable="0" parent="1">
          <mxGeometry x="440" y="80" width="160" height="100" as="geometry" />
        </mxCell>
        <mxCell id="sbt_hyZxBfFW6GqUvSIC-3" value="Game Room" style="rounded=0;whiteSpace=wrap;html=1;" vertex="1" parent="sbt_hyZxBfFW6GqUvSIC-8">
          <mxGeometry width="120" height="60" as="geometry" />
        </mxCell>
        <mxCell id="sbt_hyZxBfFW6GqUvSIC-4" value="Game Room" style="rounded=0;whiteSpace=wrap;html=1;" vertex="1" parent="sbt_hyZxBfFW6GqUvSIC-8">
          <mxGeometry x="10" y="10" width="120" height="60" as="geometry" />
        </mxCell>
        <mxCell id="sbt_hyZxBfFW6GqUvSIC-5" value="Game Room" style="rounded=0;whiteSpace=wrap;html=1;" vertex="1" parent="sbt_hyZxBfFW6GqUvSIC-8">
          <mxGeometry x="20" y="20" width="120" height="60" as="geometry" />
        </mxCell>
        <mxCell id="sbt_hyZxBfFW6GqUvSIC-6" value="Game Room" style="rounded=0;whiteSpace=wrap;html=1;" vertex="1" parent="sbt_hyZxBfFW6GqUvSIC-8">
          <mxGeometry x="30" y="30" width="120" height="60" as="geometry" />
        </mxCell>
        <mxCell id="sbt_hyZxBfFW6GqUvSIC-7" value="Game Rooms" style="rounded=0;whiteSpace=wrap;html=1;" vertex="1" parent="sbt_hyZxBfFW6GqUvSIC-8">
          <mxGeometry x="40" y="40" width="120" height="60" as="geometry" />
        </mxCell>
        <mxCell id="sbt_hyZxBfFW6GqUvSIC-15" style="rounded=0;orthogonalLoop=1;jettySize=auto;html=1;" edge="1" parent="1" source="sbt_hyZxBfFW6GqUvSIC-2" target="sbt_hyZxBfFW6GqUvSIC-13">
          <mxGeometry relative="1" as="geometry" />
        </mxCell>
        <mxCell id="sbt_hyZxBfFW6GqUvSIC-9" value="" style="group" vertex="1" connectable="0" parent="1">
          <mxGeometry x="254" y="70" width="160" height="100" as="geometry" />
        </mxCell>
        <mxCell id="sbt_hyZxBfFW6GqUvSIC-10" value="Game Room" style="rounded=0;whiteSpace=wrap;html=1;" vertex="1" parent="sbt_hyZxBfFW6GqUvSIC-9">
          <mxGeometry width="120" height="60" as="geometry" />
        </mxCell>
        <mxCell id="sbt_hyZxBfFW6GqUvSIC-11" value="Game Room" style="rounded=0;whiteSpace=wrap;html=1;" vertex="1" parent="sbt_hyZxBfFW6GqUvSIC-9">
          <mxGeometry x="10" y="10" width="120" height="60" as="geometry" />
        </mxCell>
        <mxCell id="sbt_hyZxBfFW6GqUvSIC-12" value="Game Room" style="rounded=0;whiteSpace=wrap;html=1;" vertex="1" parent="sbt_hyZxBfFW6GqUvSIC-9">
          <mxGeometry x="20" y="20" width="120" height="60" as="geometry" />
        </mxCell>
        <mxCell id="sbt_hyZxBfFW6GqUvSIC-13" value="Game Room" style="rounded=0;whiteSpace=wrap;html=1;" vertex="1" parent="sbt_hyZxBfFW6GqUvSIC-9">
          <mxGeometry x="30" y="30" width="120" height="60" as="geometry" />
        </mxCell>
        <mxCell id="sbt_hyZxBfFW6GqUvSIC-14" value="Game Rooms" style="rounded=0;whiteSpace=wrap;html=1;" vertex="1" parent="sbt_hyZxBfFW6GqUvSIC-9">
          <mxGeometry x="40" y="40" width="120" height="60" as="geometry" />
        </mxCell>
        <mxCell id="sbt_hyZxBfFW6GqUvSIC-18" value="GHCR" style="rounded=0;whiteSpace=wrap;html=1;verticalAlign=top;" vertex="1" parent="1">
          <mxGeometry x="700" y="120" width="120" height="60" as="geometry" />
        </mxCell>
        <mxCell id="sbt_hyZxBfFW6GqUvSIC-19" style="rounded=0;orthogonalLoop=1;jettySize=auto;html=1;" edge="1" parent="1" source="sbt_hyZxBfFW6GqUvSIC-7" target="sbt_hyZxBfFW6GqUvSIC-18">
          <mxGeometry relative="1" as="geometry" />
        </mxCell>
        <mxCell id="sbt_hyZxBfFW6GqUvSIC-21" style="rounded=0;orthogonalLoop=1;jettySize=auto;html=1;" edge="1" parent="1" source="sbt_hyZxBfFW6GqUvSIC-20" target="sbt_hyZxBfFW6GqUvSIC-18">
          <mxGeometry relative="1" as="geometry" />
        </mxCell>
        <mxCell id="sbt_hyZxBfFW6GqUvSIC-20" value="Github Actions" style="rounded=0;whiteSpace=wrap;html=1;" vertex="1" parent="1">
          <mxGeometry x="700" y="35" width="120" height="60" as="geometry" />
        </mxCell>
        <mxCell id="sbt_hyZxBfFW6GqUvSIC-23" style="edgeStyle=orthogonalEdgeStyle;rounded=0;orthogonalLoop=1;jettySize=auto;html=1;" edge="1" parent="1" source="sbt_hyZxBfFW6GqUvSIC-22" target="sbt_hyZxBfFW6GqUvSIC-20">
          <mxGeometry relative="1" as="geometry" />
        </mxCell>
        <mxCell id="sbt_hyZxBfFW6GqUvSIC-22" value="Code Repository" style="rounded=0;whiteSpace=wrap;html=1;" vertex="1" parent="1">
          <mxGeometry x="700" y="-60" width="120" height="60" as="geometry" />
        </mxCell>
        <mxCell id="sbt_hyZxBfFW6GqUvSIC-31" style="rounded=0;orthogonalLoop=1;jettySize=auto;html=1;" edge="1" parent="1" source="sbt_hyZxBfFW6GqUvSIC-30" target="sbt_hyZxBfFW6GqUvSIC-28">
          <mxGeometry relative="1" as="geometry" />
        </mxCell>
        <mxCell id="sbt_hyZxBfFW6GqUvSIC-30" value="&lt;div&gt;&lt;font style=&quot;font-size: 18px;&quot;&gt;&lt;b&gt;User&lt;/b&gt;&lt;/font&gt;&lt;/div&gt;" style="ellipse;shape=cloud;whiteSpace=wrap;html=1;" vertex="1" parent="1">
          <mxGeometry x="140" y="-230" width="140" height="120" as="geometry" />
        </mxCell>
        <mxCell id="sbt_hyZxBfFW6GqUvSIC-29" value="" style="group" vertex="1" connectable="0" parent="1">
          <mxGeometry x="350" y="-40" width="150" height="90" as="geometry" />
        </mxCell>
        <mxCell id="sbt_hyZxBfFW6GqUvSIC-2" value="MatchMaking Lobby&lt;br&gt;(Docker Image)" style="rounded=0;whiteSpace=wrap;html=1;" vertex="1" parent="sbt_hyZxBfFW6GqUvSIC-29">
          <mxGeometry width="110" height="50" as="geometry" />
        </mxCell>
        <mxCell id="sbt_hyZxBfFW6GqUvSIC-25" value="MatchMaking Lobby&lt;br&gt;(Docker Image)" style="rounded=0;whiteSpace=wrap;html=1;" vertex="1" parent="sbt_hyZxBfFW6GqUvSIC-29">
          <mxGeometry x="10" y="10" width="110" height="50" as="geometry" />
        </mxCell>
        <mxCell id="sbt_hyZxBfFW6GqUvSIC-26" value="MatchMaking Lobby&lt;br&gt;(Docker Image)" style="rounded=0;whiteSpace=wrap;html=1;" vertex="1" parent="sbt_hyZxBfFW6GqUvSIC-29">
          <mxGeometry x="20" y="20" width="110" height="50" as="geometry" />
        </mxCell>
        <mxCell id="sbt_hyZxBfFW6GqUvSIC-27" value="MatchMaking Lobby&lt;br&gt;(Docker Image)" style="rounded=0;whiteSpace=wrap;html=1;" vertex="1" parent="sbt_hyZxBfFW6GqUvSIC-29">
          <mxGeometry x="30" y="30" width="110" height="50" as="geometry" />
        </mxCell>
        <mxCell id="sbt_hyZxBfFW6GqUvSIC-28" value="MatchMaking Lobby&lt;br&gt;(Docker Image)" style="rounded=0;whiteSpace=wrap;html=1;" vertex="1" parent="sbt_hyZxBfFW6GqUvSIC-29">
          <mxGeometry x="40" y="40" width="110" height="50" as="geometry" />
        </mxCell>
      </root>
    </mxGraphModel>
  </diagram>
</mxfile>
